<mxfile host="app.diagrams.net" modified="2021-11-15T14:30:41.389Z" agent="5.0 (Windows NT 10.0; Win64; x64) AppleWebKit/537.36 (KHTML, like Gecko) Chrome/95.0.4638.69 Safari/537.36" etag="o8kvdD3PorEfl9E4ISAS" version="15.7.3" type="github">
  <diagram id="JyGmXJ1_42tJ13PDCMie" name="Page-1">
    <mxGraphModel dx="2249" dy="762" grid="1" gridSize="12" guides="1" tooltips="1" connect="1" arrows="1" fold="1" page="1" pageScale="1" pageWidth="827" pageHeight="1169" background="none" math="0" shadow="0">
      <root>
        <mxCell id="0" />
        <mxCell id="1" parent="0" />
        <mxCell id="wAx6tQnkp0cEqL6GzewC-4" style="edgeStyle=orthogonalEdgeStyle;rounded=0;orthogonalLoop=1;jettySize=auto;html=1;entryX=0.5;entryY=0;entryDx=0;entryDy=0;" parent="1" source="wAx6tQnkp0cEqL6GzewC-2" target="wAx6tQnkp0cEqL6GzewC-3" edge="1">
          <mxGeometry relative="1" as="geometry" />
        </mxCell>
        <mxCell id="wAx6tQnkp0cEqL6GzewC-6" style="edgeStyle=orthogonalEdgeStyle;rounded=0;orthogonalLoop=1;jettySize=auto;html=1;entryX=0.542;entryY=-0.036;entryDx=0;entryDy=0;entryPerimeter=0;" parent="1" source="wAx6tQnkp0cEqL6GzewC-2" target="wAx6tQnkp0cEqL6GzewC-5" edge="1">
          <mxGeometry relative="1" as="geometry" />
        </mxCell>
        <mxCell id="8E7TYRCf5sFxeoX8fb92-2" style="edgeStyle=orthogonalEdgeStyle;rounded=0;orthogonalLoop=1;jettySize=auto;html=1;entryX=0.5;entryY=0;entryDx=0;entryDy=0;" edge="1" parent="1" source="wAx6tQnkp0cEqL6GzewC-2" target="8E7TYRCf5sFxeoX8fb92-1">
          <mxGeometry relative="1" as="geometry" />
        </mxCell>
        <mxCell id="wAx6tQnkp0cEqL6GzewC-2" value="&lt;b&gt;API&lt;/b&gt;&lt;br&gt;/api/v1" style="rounded=0;whiteSpace=wrap;html=1;fillColor=#d5e8d4;strokeColor=#82b366;" parent="1" vertex="1">
          <mxGeometry x="264" y="168" width="120" height="60" as="geometry" />
        </mxCell>
        <mxCell id="8E7TYRCf5sFxeoX8fb92-6" value="" style="edgeStyle=orthogonalEdgeStyle;rounded=0;orthogonalLoop=1;jettySize=auto;html=1;entryX=0.3;entryY=0;entryDx=0;entryDy=0;entryPerimeter=0;" edge="1" parent="1" source="wAx6tQnkp0cEqL6GzewC-3" target="8E7TYRCf5sFxeoX8fb92-10">
          <mxGeometry relative="1" as="geometry">
            <mxPoint x="156" y="456" as="targetPoint" />
          </mxGeometry>
        </mxCell>
        <mxCell id="8E7TYRCf5sFxeoX8fb92-9" style="edgeStyle=orthogonalEdgeStyle;rounded=0;orthogonalLoop=1;jettySize=auto;html=1;entryX=0.5;entryY=0;entryDx=0;entryDy=0;" edge="1" parent="1" source="wAx6tQnkp0cEqL6GzewC-3" target="8E7TYRCf5sFxeoX8fb92-7">
          <mxGeometry relative="1" as="geometry" />
        </mxCell>
        <mxCell id="wAx6tQnkp0cEqL6GzewC-3" value="&lt;b&gt;USERS&lt;/b&gt;" style="rounded=0;whiteSpace=wrap;html=1;fillColor=#ffe6cc;strokeColor=#d79b00;" parent="1" vertex="1">
          <mxGeometry x="96" y="312" width="120" height="60" as="geometry" />
        </mxCell>
        <mxCell id="wAx6tQnkp0cEqL6GzewC-5" value="&lt;b&gt;POSTS&lt;/b&gt;" style="rounded=0;whiteSpace=wrap;html=1;fillColor=#fff2cc;strokeColor=#d6b656;" parent="1" vertex="1">
          <mxGeometry x="294" y="312" width="120" height="60" as="geometry" />
        </mxCell>
        <mxCell id="8E7TYRCf5sFxeoX8fb92-1" value="&lt;b&gt;COMMENTS&lt;/b&gt;" style="rounded=0;whiteSpace=wrap;html=1;fillColor=#f8cecc;strokeColor=#b85450;" vertex="1" parent="1">
          <mxGeometry x="468" y="312" width="120" height="60" as="geometry" />
        </mxCell>
        <mxCell id="8E7TYRCf5sFxeoX8fb92-7" value="&lt;b&gt;GET REQUESTS&lt;/b&gt;&lt;br&gt;&lt;ul&gt;&lt;li&gt;getUsers&lt;/li&gt;&lt;/ul&gt;" style="rounded=0;whiteSpace=wrap;html=1;fillColor=#ffe6cc;strokeColor=#d79b00;" vertex="1" parent="1">
          <mxGeometry x="-60" y="480" width="156" height="96" as="geometry" />
        </mxCell>
        <mxCell id="8E7TYRCf5sFxeoX8fb92-10" value="&lt;b&gt;POST REQUESTS&lt;/b&gt;&lt;br&gt;&lt;ul&gt;&lt;li&gt;registerUsers&lt;/li&gt;&lt;/ul&gt;" style="rounded=0;whiteSpace=wrap;html=1;fillColor=#ffe6cc;strokeColor=#d79b00;" vertex="1" parent="1">
          <mxGeometry x="120" y="480" width="156" height="96" as="geometry" />
        </mxCell>
      </root>
    </mxGraphModel>
  </diagram>
</mxfile>
